<svg xmlns="http://www.w3.org/2000/svg" xml:space="preserve" viewBox="0 0 24 24" enable-background="new 0 0 24 24" id="draw">
  <g id="Layer_2" fill="#222222" class="color000000 svgShape">
    <g fill="#222222" class="color000000 svgShape">
      <path d="M6.121582,4.849609c0.469238-0.291504,0.61377-0.908203,0.322266-1.376953
			C6.151855,3.00293,5.534668,2.858398,5.066895,3.150391C4.530762,3.483398,3.796387,3.939453,3.351562,4.694336
			C2.82373,5.589844,2.84375,6.94873,3.790527,7.67334c0.631348,0.483398,1.539551,0.552246,2.369629,0.186035
			C6.638184,7.647461,7.01416,7.339844,7.346191,7.067871l0.193848-0.157715c0.816895-0.649902,1.77832-1.15332,2.779785-1.456055
			c0.338379-0.102051,0.483398-0.09375,0.499512-0.107422c0.008301,0.02002,0.018066,0.057129,0.01709,0.103516
			c-0.002441,0.182617-0.106934,0.418945-0.185059,0.581543c-0.47168,0.976562-1.243164,1.811035-2.05957,2.695312
			C8.383789,8.952148,8.175293,9.177734,7.972168,9.405273c-1.011719,1.133301-2.193359,2.677734-2.355469,4.577148
			c-0.063965,0.741699,0.125,1.31543,0.562012,1.706055c0.341309,0.304688,1.101562,0.720215,2.365234,0.077637
			c1.444824-0.73291,2.691895-1.73291,3.897949-2.699707c0.426758-0.342773,0.854004-0.685059,1.289062-1.015137
			c1.219238-0.923828,3.069824-2.165527,5.053711-2.277832c0.106445-0.006348,0.169922-0.005371,0.190918-0.01416
			c0.022461,0.074707,0.039062,0.228027,0.004883,0.413086c-0.208496,1.132324-1.150391,2.074707-2.267578,3.102051
			l-6.512695,5.989746c-0.406738,0.373535-0.433105,1.006348-0.059082,1.412598C10.337891,20.891113,10.607422,21,10.877441,21
			c0.241699,0,0.484375-0.087402,0.67627-0.26416l6.512695-5.989258c1.069824-0.983398,2.534668-2.330078,2.880859-4.211914
			c0.206543-1.120605-0.190918-2.119141-1.013184-2.543457c-0.444824-0.228516-0.909668-0.233887-1.263184-0.214844
			c-2.528809,0.144043-4.719727,1.599121-6.147949,2.681152c-0.449707,0.340332-0.891113,0.694336-1.33252,1.04834
			c-1.178223,0.944824-2.291016,1.837402-3.552246,2.477051c-0.003418,0.001953-0.006836,0.003906-0.010742,0.005371
			c0.172363-1.24707,1.065918-2.387207,1.836914-3.250977c0.195801-0.219238,0.395996-0.436035,0.59668-0.65332
			c0.879883-0.952637,1.790039-1.9375,2.391113-3.182617c0.174805-0.361816,0.375977-0.850098,0.384277-1.422852
			c0.009766-0.714844-0.302246-1.368164-0.835938-1.748535c-0.859863-0.612305-1.912109-0.294922-2.258301-0.19043
			c-1.242676,0.375488-2.43457,1-3.447754,1.806152l-0.21582,0.174805C5.822754,5.730469,5.581055,5.928711,5.350586,6.030273
			C5.18457,6.104492,5.037109,6.100586,5.019043,6.098633C4.992676,6.055176,4.97998,5.870117,5.074219,5.709961
			C5.269531,5.378906,5.722168,5.097656,6.121582,4.849609z" fill="#222222" class="color000000 svgShape"></path>
    </g>
  </g>
</svg>
