<svg xmlns="http://www.w3.org/2000/svg" xml:space="preserve" id="graphics" width="64" height="64" x="0" y="0" enable-background="new 0 0 64 64" version="1.1" viewBox="0 0 64 64">
  <path d="M55.999,60.002H52V37.728c5.946-3.213,9.997-9.502,9.999-16.721C61.999,21.004,62,21.002,62,21
	c0-0.002-0.001-0.004-0.001-0.007C61.995,10.52,53.473,2,42.999,2c-10.477,0-19,8.523-19,19c0,0.007,0.001,0.013,0.001,0.019v38.982
	h-3.001v-45c0-1.206-0.799-3-3-3h-6.001c-1.206,0-3,0.799-3,3v45H4.999v-47c0-0.552-0.448-1-1-1s-1,0.448-1,1v48
	c0,0.553,0.448,1,1,1h15.995c0.002,0,0.003,0.001,0.005,0.001s0.003-0.001,0.005-0.001h35.995c0.553,0,1-0.447,1-1
	S56.552,60.002,55.999,60.002z M50,60.002h-8V39.95c0.333,0.017,0.662,0.051,0.999,0.051c2.474,0,4.832-0.489,7.001-1.353V60.002z
	 M40,39.741v20.261h-4V38.648C37.272,39.155,38.611,39.519,40,39.741z M59.948,20H44L43.999,4.051
	C52.574,4.554,59.446,11.425,59.948,20z M41.999,4.051L42,21c0,0.552,0.447,1,1,1h16.948c-0.522,8.908-7.913,16.001-16.949,16.001
	c-9.367,0-16.988-7.616-16.999-16.981V21c0-0.001-0.001-0.002-0.001-0.004C26.002,11.962,33.093,4.573,41.999,4.051z M26,29.437
	c1.753,3.518,4.549,6.427,8,8.291v22.273h-8V29.437z M10.998,15.002c0-0.805,0.55-0.988,1-1h6.001c0.805,0,0.988,0.55,1,1v45h-8.001
	V15.002z" fill="#222222" class="color000000 svgShape"></path>
</svg>
