<svg width="24" height="24" viewBox="0 0 24 24" fill="none" xmlns="http://www.w3.org/2000/svg">
<path d="M12 5.99995C13.8387 5.99384 15.6419 6.50673 17.2021 7.47968C18.7624 8.45262 20.0164 9.84611 20.82 11.5C20.24 12.6948 19.4195 13.7569 18.41 14.62L19.82 16.03C21.21 14.8 22.31 13.26 23 11.5C21.27 7.10995 17 3.99995 12 3.99995C10.73 3.99995 9.51 4.19995 8.36 4.56995L10.01 6.21995C10.66 6.08995 11.32 5.99995 12 5.99995ZM10.93 7.13995L13 9.20995C13.57 9.45995 14.03 9.91995 14.28 10.49L16.35 12.56C16.43 12.22 16.49 11.86 16.49 11.49C16.5 9.00995 14.48 6.99995 12 6.99995C11.63 6.99995 11.28 7.04995 10.93 7.13995ZM2.01 3.86995L4.69 6.54995C3.04032 7.84111 1.76625 9.55024 1 11.5C2.73 15.89 7 19 12 19C13.52 19 14.98 18.71 16.32 18.18L19.74 21.6L21.15 20.19L3.42 2.44995L2.01 3.86995ZM9.51 11.37L12.12 13.98C12.08 13.99 12.04 14 12 14C11.337 14 10.7011 13.7366 10.2322 13.2677C9.76339 12.7989 9.5 12.163 9.5 11.5C9.5 11.45 9.51 11.42 9.51 11.37ZM6.11 7.96995L7.86 9.71995C7.62291 10.2835 7.50052 10.8886 7.5 11.5C7.5013 12.244 7.68677 12.9761 8.03987 13.631C8.39297 14.2859 8.90271 14.8432 9.52359 15.2532C10.1445 15.6631 10.8572 15.913 11.5982 15.9805C12.3391 16.048 13.0853 15.931 13.77 15.64L14.75 16.62C13.87 16.86 12.95 17 12 17C10.1613 17.0061 8.35813 16.4932 6.79788 15.5202C5.23763 14.5473 3.98362 13.1538 3.18 11.5C3.88 10.07 4.9 8.88995 6.11 7.96995Z" fill="black"/>
</svg>
