<svg xmlns="http://www.w3.org/2000/svg" width="24" height="24" viewBox="0 0 24 24" id="TextSize">
  <path d="M12.75,20a.75.75,0,0,1-.75.75H6a.75.75,0,0,1,0-1.5H8.25V4.75H2.75V6a.75.75,0,0,1-1.5,0V4A.75.75,0,0,1,2,3.25H16a.75.75,0,0,1,.75.75V6a.75.75,0,0,1-1.5,0V4.75H9.75v14.5H12A.75.75,0,0,1,12.75,20ZM22,11.25H14a.75.75,0,0,0-.75.75v1a.75.75,0,0,0,1.5,0v-.25h2.5v6.5H16a.75.75,0,0,0,0,1.5h4a.75.75,0,0,0,0-1.5H18.75v-6.5h2.5V13a.75.75,0,0,0,1.5,0V12A.75.75,0,0,0,22,11.25Z" fill="#222222" class="color000000 svgShape"></path>
</svg>
