<svg xmlns="http://www.w3.org/2000/svg" viewBox="0 0 1200 400" fill="none" aria-hidden="true">
  <rect width="1200" height="400" fill="#f5f5f5"/>
  <path d="M0 320 Q300 260 600 300 T1200 280 V400 H0 Z" fill="#1d636b" fill-opacity="0.08"/>
  <circle cx="225" cy="188" r="48" fill="#fa8095" fill-opacity="0.25" stroke="#fa8095" stroke-width="2"/>
  <path d="M201 196c8-16 40-16 48 0" stroke="#222" stroke-width="2" stroke-linecap="round"/>
  <circle cx="213" cy="176" r="4" fill="#222"/>
  <circle cx="237" cy="176" r="4" fill="#222"/>
  <rect x="313" y="140" width="240" height="36" rx="8" fill="#fff" stroke="#1d636b" stroke-width="2"/>
  <rect x="313" y="192" width="240" height="36" rx="8" fill="#fff" stroke="#1d636b" stroke-width="2"/>
  <rect x="353" y="244" width="160" height="40" rx="8" fill="#1d636b"/>
  <path d="M381 264h104" stroke="#f0c85b" stroke-width="2" stroke-linecap="round"/>
  <rect x="603" y="70" width="420" height="260" rx="16" fill="#fff" stroke="#1d636b" stroke-width="2"/>
  <rect x="663" y="98" width="150" height="94" rx="8" fill="#f0c85b" fill-opacity="0.4" stroke="#f58b24" stroke-width="2"/>
  <circle cx="873" cy="145" r="42" fill="#fa8095" fill-opacity="0.3" stroke="#fa8095" stroke-width="2"/>
  <path d="M691 218h244M721 250h184M706 282h214" stroke="#666" stroke-width="2" stroke-linecap="round"/>
  <rect x="758" y="300" width="110" height="14" rx="4" fill="#1d636b" fill-opacity="0.2"/>
</svg>
