<svg xmlns="http://www.w3.org/2000/svg" viewBox="0 0 800 600" fill="none" aria-hidden="true">
  <rect width="800" height="600" fill="#1d636b"/>
  <rect x="150" y="70" width="500" height="300" rx="12" fill="#fff" stroke="#f0c85b" stroke-width="3"/>
  <rect x="166" y="86" width="468" height="240" rx="4" fill="#f5f5f5"/>
  <rect x="190" y="110" width="130" height="84" rx="6" fill="#fa8095" fill-opacity="0.35" stroke="#fa8095" stroke-width="2"/>
  <circle cx="430" cy="150" r="38" fill="#f0c85b" fill-opacity="0.5" stroke="#f58b24" stroke-width="2"/>
  <path d="M350 210h200M350 230h160" stroke="#1d636b" stroke-width="2" stroke-linecap="round"/>
  <rect x="340" y="340" width="120" height="8" rx="4" fill="#f0c85b" fill-opacity="0.6"/>
  <rect x="555" y="170" width="150" height="210" rx="16" fill="#fff" stroke="#f0c85b" stroke-width="3"/>
  <rect x="571" y="190" width="118" height="160" rx="4" fill="#f5f5f5"/>
  <rect x="587" y="206" width="86" height="52" rx="4" fill="#1d636b" fill-opacity="0.2"/>
  <circle cx="630" cy="290" r="18" fill="#fa8095" fill-opacity="0.45"/>
  <rect x="598" y="358" width="64" height="8" rx="4" fill="#f0c85b" fill-opacity="0.6"/>
  <rect x="95" y="310" width="95" height="170" rx="14" fill="#fff" stroke="#f0c85b" stroke-width="3"/>
  <rect x="107" y="328" width="71" height="114" rx="4" fill="#f5f5f5"/>
  <rect x="119" y="340" width="47" height="34" rx="4" fill="#f58b24" fill-opacity="0.35"/>
  <circle cx="142" cy="396" r="11" fill="#f0c85b" fill-opacity="0.6"/>
  <rect x="119" y="454" width="47" height="6" rx="3" fill="#f0c85b" fill-opacity="0.6"/>
  <path d="M190 400h70M190 420h52" stroke="#f0c85b" stroke-width="2" stroke-linecap="round" stroke-dasharray="8 6" opacity="0.7"/>
  <path d="M505 290h36" stroke="#f0c85b" stroke-width="2" stroke-linecap="round" stroke-dasharray="8 6" opacity="0.7"/>
</svg>
