<svg xmlns="http://www.w3.org/2000/svg" viewBox="0 0 800 420" fill="none" aria-hidden="true">
  <rect width="800" height="420" fill="#f5f5f5"/>
  <rect x="100" y="32" width="600" height="48" rx="8" fill="#fff" stroke="#1d636b" stroke-width="2"/>
  <rect x="124" y="44" width="24" height="24" rx="4" stroke="#222" stroke-width="2"/>
  <circle cx="172" cy="56" r="10" stroke="#fa8095" stroke-width="2"/>
  <rect x="196" y="46" width="20" height="20" rx="2" stroke="#f58b24" stroke-width="2"/>
  <path d="M232 52h28M232 60h20" stroke="#1d636b" stroke-width="2" stroke-linecap="round"/>
  <rect x="276" y="46" width="24" height="18" rx="2" stroke="#222" stroke-width="2"/>
  <rect x="100" y="96" width="600" height="292" rx="12" fill="#fff" stroke="#1d636b" stroke-width="2"/>
  <rect x="132" y="148" width="150" height="100" rx="8" fill="#fa8095" fill-opacity="0.25" stroke="#fa8095" stroke-width="2" transform="rotate(-6 207 198)"/>
  <circle cx="400" cy="210" r="52" fill="#f0c85b" fill-opacity="0.35" stroke="#f58b24" stroke-width="2"/>
  <rect x="470" y="168" width="140" height="88" rx="6" fill="#f58b24" fill-opacity="0.2" stroke="#f58b24" stroke-width="2"/>
  <path d="M490 196h100M490 216h80M490 236h92" stroke="#1d636b" stroke-width="2" stroke-linecap="round"/>
  <rect x="548" y="132" width="120" height="88" rx="6" stroke="#222" stroke-width="2" stroke-dasharray="6 4"/>
  <path d="M574 160l26 22 36-44" stroke="#1d636b" stroke-width="2" stroke-linecap="round" stroke-linejoin="round"/>
  <circle cx="608" cy="196" r="10" fill="#fa8095" fill-opacity="0.5"/>
</svg>
