<svg xmlns="http://www.w3.org/2000/svg" viewBox="0 0 800 420" fill="none" aria-hidden="true">
  <rect width="800" height="420" fill="#f5f5f5"/>
  <rect x="220" y="36" width="360" height="40" rx="20" fill="#fff" stroke="#1d636b" stroke-width="2"/>
  <circle cx="248" cy="56" r="10" stroke="#222" stroke-width="2"/>
  <path d="M268 56h280" stroke="#666" stroke-width="2" stroke-linecap="round"/>
  <g stroke="#222" stroke-width="2">
    <rect x="76" y="108" width="200" height="260" rx="12" fill="#fff"/>
    <rect x="96" y="128" width="160" height="120" rx="8" fill="#fa8095" fill-opacity="0.2"/>
    <path d="M96 268h110M96 292h72" stroke-linecap="round"/>
    <path d="M256 140l14 12-14 12" stroke="#fa8095" fill="#fa8095" fill-opacity="0.4"/>
  </g>
  <g stroke="#222" stroke-width="2">
    <rect x="300" y="108" width="200" height="260" rx="12" fill="#fff"/>
    <rect x="320" y="128" width="160" height="120" rx="8" fill="#f0c85b" fill-opacity="0.35"/>
    <path d="M320 268h90M320 292h124" stroke-linecap="round"/>
    <path d="M480 140c0 8-6 14-14 14s-14-6-14-14 6-14 14-14 14 6 14 14z" fill="#fa8095" fill-opacity="0.5" stroke="#fa8095"/>
  </g>
  <g stroke="#222" stroke-width="2">
    <rect x="524" y="108" width="200" height="260" rx="12" fill="#fff"/>
    <rect x="544" y="128" width="160" height="120" rx="8" fill="#1d636b" fill-opacity="0.15"/>
    <path d="M544 268h100M544 292h82" stroke-linecap="round"/>
    <path d="M704 140l14 12-14 12" stroke="#1d636b" fill="#1d636b" fill-opacity="0.3"/>
  </g>
  <path d="M380 388h40" stroke="#f58b24" stroke-width="3" stroke-linecap="round"/>
</svg>
