<svg xmlns="http://www.w3.org/2000/svg" viewBox="0 0 24 24" id="home">
  <path d="m19.091,7.233l-4.844-4.152c-1.251-1.072-3.244-1.072-4.495,0l-4.843,4.152c-1.055.903-1.659,2.218-1.659,3.606v8.16c0,1.517,1.233,2.75,2.75,2.75h12c1.517,0,2.75-1.233,2.75-2.75v-8.16c0-1.389-.604-2.703-1.659-3.606Zm-9.341,13.017v-5.25c0-.689.561-1.25,1.25-1.25h2c.689,0,1.25.561,1.25,1.25v5.25h-4.5Zm9.5-1.25c0,.689-.561,1.25-1.25,1.25h-2.25v-5.25c0-1.517-1.233-2.75-2.75-2.75h-2c-1.517,0-2.75,1.233-2.75,2.75v5.25h-2.25c-.689,0-1.25-.561-1.25-1.25v-8.16c0-.95.414-1.85,1.135-2.468l4.844-4.152c.354-.303.805-.47,1.271-.47s.917.167,1.271.47l4.844,4.152c.721.618,1.135,1.518,1.135,2.468v8.16Z" fill="#222222" class="color000000 svgShape"></path>
</svg>
