<svg id="Capa_1" data-name="Capa 1" xmlns="http://www.w3.org/2000/svg" viewBox="0 0 624.26 209.61"><defs><style>.cls-1{fill:#fff;}</style></defs><path d="M429.25,299.13a3.46,3.46,0,0,1-.82-.55c-5.31-6.34-5.24-7.32,1.7-11.64,15.86-9.88,33-12.66,51.1-8.17,15.2,3.78,24.76,15.73,25,31.38.35,22.75,0,45.5.21,68.26,0,4.11-2.21,4.08-5.07,4s-5.95.61-5.76-3.95c.16-3.76,0-7.54,0-12.55-6.73,8.79-14.52,14-24.34,16a55.75,55.75,0,0,1-30.88-1.85c-12.76-4.65-20.61-16.59-19.43-28.8,1.39-14.36,10.31-24.71,24.82-26.22,14-1.46,28.17-1.23,42.26-1.59,7.53-.19,7.53,0,7.49-7.26-.14-23.77-16.22-31.33-36.29-29.07a61.5,61.5,0,0,0-15.77,4.2C438.62,293.28,434.2,296.36,429.25,299.13Zm43.65,33.38,0-.46c-8.1.49-16.24.56-24.27,1.58-9,1.14-15.4,7.87-16.18,15.75-1,10.38,3,18,12.23,21.48,13.12,4.95,26,4.32,38-3.46,11.15-7.22,14.21-18,13-30.62-.31-3.15-1.05-4.43-4.34-4.33C485.19,332.64,479,332.51,472.9,332.51Z" transform="translate(-64.05 -211.98)"/><path d="M591.91,278.41c8.76-2.26,10.21-1.62,13.25,5.68q16.46,39.48,32.86,79c.63,1.51,1.27,3,2.18,5.18a24.61,24.61,0,0,0,1.93-3.06q16.88-40.66,33.68-81.36c2.89-7,4.48-7.72,12.5-5.45a30.83,30.83,0,0,1-1,3.59c-16.45,39.31-32.82,78.66-49.46,117.89-4.12,9.71-10.09,18.27-21.27,20.72-8.08,1.76-16.24,1.41-23.66-3-7.77-4.6-8-6.57-1.37-13.78,5.16,4.91,11,8.28,18.58,7.78,5.49-.36,10.44-2.2,13.18-6.86A207.6,207.6,0,0,0,634.06,383c.69-1.58-.34-4.2-1.13-6.1q-19.44-46.59-39-93.11C593.21,282.13,592.65,280.43,591.91,278.41Z" transform="translate(-64.05 -211.98)"/><path d="M547.76,295.3c9.84-13.24,22.71-18.72,39.42-18.29,0,2.29-.15,4.22,0,6.11.34,3.49-1.12,4.5-4.57,4.6-20.55.58-34.09,14.23-34.38,34.81-.24,17.92-.08,35.85-.11,53.77,0,5.38-5.52,8.6-10,5.58-1.1-.75-1.48-3.16-1.5-4.81-.11-12.94-.06-25.89-.06-38.83,0-18.43.13-36.85-.1-55.27,0-4.56,1.77-5.61,5.86-5.66s5.65,1.55,5.43,5.58S547.76,291.16,547.76,295.3Z" transform="translate(-64.05 -211.98)"/><path d="M395.51,330c0,15.77-.15,31.54.1,47.3.07,4.45-1.77,5.11-5.6,5.16-4,.06-5.44-1-5.42-5.28q.24-47.31,0-94.6c0-4.41,1.74-5.26,5.56-5.28s5.53,1.14,5.47,5.4C395.37,298.5,395.51,314.26,395.51,330Z" transform="translate(-64.05 -211.98)"/><path d="M398.53,244.7a8.68,8.68,0,0,1-8.62,8.93,8.89,8.89,0,0,1-8.62-8.59,8.74,8.74,0,0,1,8.79-8.86A8.44,8.44,0,0,1,398.53,244.7Z" transform="translate(-64.05 -211.98)"/><path class="cls-1" d="M472.9,332.51c6.14,0,12.29.13,18.42-.06,3.29-.1,4,1.18,4.34,4.33,1.25,12.65-1.81,23.4-13,30.62-12,7.78-24.92,8.41-38,3.46-9.24-3.49-13.26-11.1-12.23-21.48.78-7.88,7.2-14.61,16.18-15.75,8-1,16.17-1.09,24.27-1.58Z" transform="translate(-64.05 -211.98)"/><path d="M346.08,258.43c-18-30.6-44.42-46.93-80.68-46.44-27.78.37-55.57.07-83.36.07v.34c-31.12,0-62.24.08-93.36,0-13.91-.05-25.43,11.78-24.59,25.59.78,12.71,11.08,22.61,24.9,22.62,21.8,0,43.6-.17,65.4.19,3.22.05,6.82,2.1,9.51,4.17,6.06,4.66,6,21.83-.61,26.29a26.24,26.24,0,0,1-10.62,4.39c-5.56.73-11.29.18-16.95.2-11.19,0-19.07,7.45-20.29,19.06a19.83,19.83,0,0,0,16.63,21.47c6.68,1,13.65.09,20.35,1,4,.56,8.64,2.15,11.39,4.89,6.06,6,5.59,14.05,2.87,21.44-2.65,7.22-8.84,9.82-16.35,9.8-20.63-.07-41.27,0-61.9,0-13.93,0-24.17,10-24.2,23.53,0,14.1,10,24.1,24.1,24.1h134.3c2,0,4,.14,6,.13,17.61-.06,35.32,1.07,52.79-.52,23.3-2.12,41.85-14.28,56.09-32.61C365.93,351.52,369.55,298.37,346.08,258.43Zm-49.22,97.1c-7.7,9.91-17.73,16.48-30.32,17.63-9.44.86-19,.25-28.54.28-1.07,0-2.15-.07-3.23-.07H220.4a7.61,7.61,0,0,1-7.61-7.62l0-97.78a7.61,7.61,0,0,1,7.64-7.6c12.47,0,24.95.11,37.43-.05,19.6-.27,33.89,8.56,43.61,25.1C314.2,307,312.24,335.74,296.86,355.53Z" transform="translate(-64.05 -211.98)"/></svg>