<svg xmlns="http://www.w3.org/2000/svg" width="24" height="24" fill="none" viewBox="0 0 24 24" id="cursor">
  <path fill="#222222" fill-rule="evenodd" d="M6.86391 6.6086C6.75327 5.33969 8.17465 4.51906 9.21824 5.24933L18.8783 12.0091C20.0068 12.7988 19.5636 14.5644 18.1959 14.7275L13.4479 15.2938L10.5834 19.1226C9.75836 20.2255 8.00768 19.7265 7.88804 18.3543L6.86391 6.6086ZM8.64491 6.06865C8.29705 5.82523 7.82325 6.09877 7.86013 6.52174L8.88426 18.2675C8.92414 18.7248 9.5077 18.8912 9.78273 18.5236L12.7755 14.5232C12.8575 14.4136 12.9808 14.3424 13.1167 14.3262L18.0775 13.7346C18.5334 13.6802 18.6811 13.0917 18.3049 12.8284L8.64491 6.06865Z" clip-rule="evenodd" class="color000000 svgShape"></path>
</svg>
