<svg xmlns="http://www.w3.org/2000/svg" viewBox="0 0 16 16" id="Settings">
  <path fill="#222222" d="M6 6a2 2 0 0 0-1.5-1.93V2.5a.5.5 0 0 0-1 0v1.57a2 2 0 0 0 0 3.86v5.57a.5.5 0 0 0 1 0V7.93A2 2 0 0 0 6 6zM4 7a1 1 0 1 1 1-1 1 1 0 0 1-1 1zm4.5 2.07V2.5a.5.5 0 0 0-1 0v6.57a2 2 0 0 0 0 3.86v.57a.5.5 0 0 0 1 0v-.57a2 2 0 0 0 0-3.86zM8 12a1 1 0 1 1 1-1 1 1 0 0 1-1 1zm6-7a2 2 0 0 0-1.5-1.93V2.5a.5.5 0 0 0-1 0v.57a2 2 0 0 0 0 3.86v6.57a.5.5 0 0 0 1 0V6.93A2 2 0 0 0 14 5zm-2 1a1 1 0 1 1 1-1 1 1 0 0 1-1 1z" class="color231f20 svgShape"></path>
</svg>
