<svg xmlns="http://www.w3.org/2000/svg" width="24" height="24" fill="none" id="Share">
  <defs>
    <clipPath id="a">
      <rect width="24" height="24" rx="0" fill="#222222" class="color000000 svgShape"></rect>
    </clipPath>
  </defs>
  <g clip-path="url(#a)" fill="#222222" class="color000000 svgShape">
    <path fill="#222222" fill-rule="evenodd" d="m13 5.414 1.293 1.293q.14.14.324.217T15 7q.098 0 .195-.02.097-.018.188-.056.09-.038.173-.093.082-.054.151-.124.07-.07.124-.151.055-.082.093-.173t.057-.188T16 6q0-.199-.076-.383-.076-.183-.217-.324l-3-3q-.07-.07-.151-.124-.082-.055-.173-.093t-.188-.057T12 2t-.195.02-.188.056-.173.093q-.081.054-.151.124l-3 3q-.14.14-.217.324T8 6q0 .098.02.195.018.097.056.188.038.09.093.173.054.081.124.151t.151.124q.082.055.173.093t.188.057T9 7q.199 0 .383-.076.183-.076.324-.217L11 5.414V13q0 .098.02.195.018.097.056.188.038.09.093.173.054.082.124.151.07.07.151.124.082.055.173.093t.188.057T12 14t.195-.02.188-.056.173-.092q.081-.055.151-.125t.124-.151q.055-.082.093-.173t.057-.188T13 13zm6.148 3.814Q18.597 9 17 9q-.099 0-.195.02-.097.018-.188.056-.09.038-.173.093-.081.054-.151.124t-.124.151q-.055.082-.093.173t-.057.188T16 10t.02.195.056.188.093.173q.054.081.124.151t.151.124q.082.055.173.093t.188.057T17 11q1.199 0 1.383.076.382.159.54.542Q19 11.802 19 13v4.803q0 1.437-.109 1.65-.148.29-.437.438-.214.109-1.65.109H7.197q-1.438 0-1.651-.109-.289-.147-.437-.437Q5 19.24 5 17.8V13q0-1.199.076-1.382.159-.383.542-.542Q5.8 11 7 11q.099 0 .195-.02.097-.018.188-.056.09-.038.173-.093.082-.054.151-.124.07-.07.125-.151.054-.082.092-.173t.057-.188q.02-.097.02-.195t-.02-.195q-.02-.097-.057-.188-.038-.09-.092-.173-.055-.081-.125-.151t-.151-.124q-.082-.055-.173-.093t-.188-.057T7 9q-1.597 0-2.148.228-1.148.476-1.624 1.624Q3 11.403 3 13v4.8q0 1.92.327 2.562.443.87 1.31 1.311.642.327 2.56.327h9.607q1.917 0 2.558-.327.868-.442 1.311-1.311.327-.642.327-2.559V13q0-1.596-.229-2.148-.475-1.148-1.623-1.624" class="color000000 svgShape"></path>
  </g>
</svg>
