<svg xmlns="http://www.w3.org/2000/svg" xml:space="preserve" id="Transformtext" x="0" y="0" enable-background="new 0 0 64 64" version="1.1" viewBox="0 0 64 64">
  <path fill="#484848" d="M7.08 9.63H1.43C.64 9.63 0 8.99 0 8.2V2.56c0-.79.64-1.43 1.43-1.43h5.65c.79 0 1.43.64 1.43 1.43V8.2C8.51 8.99 7.87 9.63 7.08 9.63zM2.87 6.77h2.78V3.99H2.87V6.77zM62.57 9.63h-5.64c-.79 0-1.43-.64-1.43-1.43V2.56c0-.79.64-1.43 1.43-1.43h5.64c.79 0 1.43.64 1.43 1.43V8.2C64 8.99 63.36 9.63 62.57 9.63zM58.36 6.77h2.78V3.99h-2.78V6.77zM7.08 53.36H1.43C.64 53.36 0 52.72 0 51.93v-5.65c0-.79.64-1.43 1.43-1.43h5.65c.79 0 1.43.64 1.43 1.43v5.65C8.51 52.72 7.87 53.36 7.08 53.36zM2.87 50.5h2.78v-2.78H2.87V50.5z" class="color34495c svgShape"></path>
  <path fill="#484848" d="M56.92 6.81H7.08c-.79 0-1.43-.64-1.43-1.43 0-.79.64-1.43 1.43-1.43h49.84c.79 0 1.43.64 1.43 1.43C58.36 6.17 57.71 6.81 56.92 6.81zM4.26 47.72c-.79 0-1.43-.64-1.43-1.43V8.2c0-.79.64-1.43 1.43-1.43S5.69 7.41 5.69 8.2v38.08C5.69 47.08 5.05 47.72 4.26 47.72zM28.05 50.54H7.08c-.79 0-1.43-.64-1.43-1.43 0-.79.64-1.43 1.43-1.43h20.97c.79 0 1.43.64 1.43 1.43C29.49 49.9 28.84 50.54 28.05 50.54zM59.74 38.58c-.79 0-1.43-.64-1.43-1.43V8.2c0-.79.64-1.43 1.43-1.43s1.43.64 1.43 1.43v28.94C61.18 37.94 60.54 38.58 59.74 38.58z" class="color34495c svgShape"></path>
  <g fill="#222222" class="color000000 svgShape">
    <path fill="#ffffff" d="M60.7,47.32H32.6c-0.79,0-1.43-0.64-1.43-1.43c0-0.79,0.64-1.43,1.43-1.43h24.53l-8.15-7.82
					c-0.57-0.55-0.59-1.45-0.04-2.03c0.55-0.57,1.46-0.59,2.03-0.04l10.72,10.29c0.42,0.4,0.56,1.03,0.34,1.57
					C61.81,46.97,61.28,47.32,60.7,47.32z" class="colorf6b64e svgShape"></path>
    <path fill="#ffffff" d="M50.64,57.99c-0.35,0-0.71-0.13-0.98-0.39c-0.58-0.54-0.6-1.45-0.06-2.03l10.06-10.67
					c0.54-0.57,1.45-0.6,2.03-0.06c0.58,0.54,0.6,1.45,0.06,2.03L51.68,57.54C51.4,57.84,51.02,57.99,50.64,57.99z" class="colorf6b64e svgShape"></path>
  </g>
  <g fill="#222222" class="color000000 svgShape">
    <path fill="#484848" d="M42.11,41.57c-0.58,0-1.13-0.36-1.34-0.93l-8.3-22.22l-10.2,22.31c-0.33,0.72-1.18,1.04-1.9,0.71
			c-0.72-0.33-1.04-1.18-0.71-1.9L31.3,14.08c0.24-0.53,0.78-0.86,1.35-0.84c0.58,0.02,1.09,0.39,1.29,0.93l9.5,25.46
			c0.28,0.74-0.1,1.57-0.84,1.84C42.44,41.54,42.28,41.57,42.11,41.57z" class="color34495c svgShape"></path>
  </g>
  <g fill="#222222" class="color000000 svgShape">
    <path fill="#484848" d="M38.9,32.97h-14c-0.79,0-1.43-0.64-1.43-1.43c0-0.79,0.64-1.43,1.43-1.43h14c0.79,0,1.43,0.64,1.43,1.43
			C40.33,32.33,39.69,32.97,38.9,32.97z" class="color34495c svgShape"></path>
  </g>
</svg>
