<svg xmlns="http://www.w3.org/2000/svg" width="24" height="24" id="Video">
  <path d="M16 21H3c-1.7 0-3-1.3-3-3V6c0-1.7 1.3-3 3-3h13c1.7 0 3 1.3 3 3v12c0 1.7-1.3 3-3 3zM3 5c-.6 0-1 .4-1 1v12c0 .6.4 1 1 1h13c.6 0 1-.4 1-1V6c0-.6-.4-1-1-1H3z" fill="#222222" class="color000000 svgShape"></path>
  <path d="M23 17c-.1 0-.3 0-.4-.1l-5-2c-.4-.1-.6-.5-.6-.9v-4c0-.4.2-.8.6-.9l5-2c.3-.1.7-.1.9.1.3.2.5.5.5.8v8c0 .3-.2.6-.4.8-.2.1-.4.2-.6.2zm-4-3.7 3 1.2v-5l-3 1.2v2.6zM5.5 11C4.1 11 3 9.9 3 8.5S4.1 6 5.5 6 8 7.1 8 8.5 6.9 11 5.5 11zm0-3c-.3 0-.5.2-.5.5s.2.5.5.5.5-.2.5-.5-.2-.5-.5-.5z" fill="#222222" class="color000000 svgShape"></path>
</svg>
