<svg xmlns="http://www.w3.org/2000/svg" xml:space="preserve" viewBox="0 0 1080 1080" id="processing">
  <path fill="#ffbf66" d="M799.582 732.532s56.494-120.34-7.225-110.384-53.763-73.066-17.921-134.6c35.842-61.534-36.837-170.055-133.411-90.406s-121.464-80.644-241.932-79.648-67.776 95.412-6.011 148.76-134.075 89.671-112.611 133.519c21.465 43.848-53.497 144.99 64.92 142.922 118.417-2.069 454.191-10.163 454.191-10.163z" opacity=".17" class="colorffbe55 svgShape"></path>
  <path fill="#ff6699" d="m762.253 726.217 16.019-1.833c8.614-4.741 16.035-10.106 21.546-14.77-4.608-3.963-18.288-3.818-18.288-3.818 14.075-1.228 18.358-.092 22.967-.475 7.589-7.512 11.373-18.056 15.686-26.549-16.541 5.139-20.764 5.393-20.764 5.393 9.952-2.221 16.69-6.579 22.541-9.064 9.97-21.514 6.558-31.645 6.558-31.645-7.048 1.025-22.57 5.352-28.568 6.814-6.28 9.325-12.312 21.938-12.312 21.938 1.502-6.345 5.486-14.887 8.589-20.983-8.669 2.32-7.241 2.037-14.025 5.275-6.746 9.35-14.083 27.583-14.083 27.583 1.297-7.691 5.976-18.77 8.723-24.841-11.514 6.3-20.544 14.029-28.5 23.007-3.169 9.27-5.389 19.008-5.389 19.008.015-4.343.925-9.904 2.028-15.071-8.655 10.518-16.21 22.59-24.695 35.957l-4.032 12.988 17.361 1.894c13.765.198 27.307-4.022 39.089-9.756l-10.451-1.052z" opacity=".55" class="color00aef0 svgShape"></path>
  <path fill="#ff6699" d="m752.037 703.366 13.534-8.764c5.608-8.077 9.87-16.181 12.733-22.81-5.89-1.501-18.078 4.711-18.078 4.711 12.061-7.358 16.402-8.245 20.361-10.637 3.458-10.103 2.159-21.23 2.247-30.754-12.532 11.957-16.201 14.062-16.201 14.062 7.926-6.414 12.025-13.314 16.161-18.141-.635-23.704-8.195-31.261-8.195-31.261-5.857 4.052-17.837 14.829-22.559 18.805-1.479 11.144-1.275 25.124-1.275 25.124-1.476-6.351-1.705-15.774-1.635-22.614-6.733 5.933-5.58 5.044-10.218 10.961-1.886 11.374-.352 30.968-.352 30.968-2.258-7.466-2.993-19.47-3.231-26.129-7.512 10.763-12.164 21.7-15.299 33.279 1.283 9.712 3.624 19.422 3.624 19.422-1.917-3.897-3.575-9.283-4.885-14.401-3.076 13.27-4.476 27.441-6.133 43.188l2.163 13.427 16.393-6.022c12.418-5.943 22.671-15.743 30.676-26.118l-9.831 3.704zM323.59 724.654c11.783 5.734 25.324 9.954 39.089 9.756l17.361-1.894-4.032-12.988c-8.485-13.368-16.04-25.439-24.695-35.957 1.102 5.167 2.013 10.729 2.028 15.071 0 0-2.22-9.739-5.389-19.008-7.957-8.978-16.986-16.707-28.5-23.007 2.747 6.071 7.426 17.15 8.723 24.841 0 0-7.337-18.233-14.083-27.583-6.785-3.238-5.357-2.955-14.025-5.275 3.103 6.096 7.088 14.639 8.589 20.983 0 0-6.032-12.613-12.312-21.938-5.998-1.462-21.52-5.788-28.568-6.814 0 0-3.412 10.13 6.558 31.645 5.851 2.485 12.59 6.843 22.541 9.064 0 0-4.223-.254-20.764-5.393 4.314 8.492 8.097 19.037 15.686 26.549 4.609.383 8.892-.753 22.967.475 0 0-13.68-.146-18.288 3.818 5.512 4.665 12.932 10.029 21.546 14.77l16.019 1.833-10.451 1.052z" opacity=".55" class="color00aef0 svgShape"></path>
  <path fill="#ff6699" d="M334.429 697.047c8.005 10.375 18.258 20.175 30.676 26.118l16.393 6.022 2.163-13.427c-1.657-15.747-3.058-29.918-6.133-43.188-1.31 5.118-2.967 10.505-4.885 14.401 0 0 2.341-9.71 3.624-19.422-3.135-11.58-7.787-22.517-15.299-33.279-.239 6.659-.974 18.663-3.231 26.129 0 0 1.534-19.594-.352-30.968-4.638-5.917-3.484-5.028-10.218-10.961.07 6.84-.16 16.263-1.635 22.614 0 0 .205-13.98-1.275-25.124-4.723-3.976-16.703-14.753-22.559-18.805 0 0-7.56 7.557-8.195 31.261 4.136 4.827 8.235 11.727 16.161 18.141 0 0-3.67-2.105-16.201-14.062.088 9.525-1.211 20.652 2.247 30.754 3.958 2.392 8.299 3.279 20.361 10.637 0 0-12.189-6.213-18.078-4.711 2.863 6.629 7.125 14.733 12.733 22.81l13.534 8.764-9.831-3.704z" opacity=".55" class="color00aef0 svgShape"></path>
  <ellipse cx="540.138" cy="746.065" fill="#e2e2e2" rx="309.301" ry="24.852" class="colore2e2e2 svgShape"></ellipse>
  <path fill="#ffbf66" d="M379.36 432.684c.11-.992.171-1.998.171-3.019 0-14.968-12.134-27.103-27.103-27.103-11.867 0-21.945 7.63-25.615 18.249a12.309 12.309 0 0 0-14.645 6.467 19.713 19.713 0 0 0-4.369-.492c-10.878 0-19.695 8.818-19.695 19.695 0 10.847 8.769 19.644 19.605 19.693v.08h68.434c9.355 0 16.939-7.584 16.939-16.939.001-8.256-5.906-15.128-13.722-16.631zM810.624 519.793c.071-.644.111-1.297.111-1.96 0-9.716-7.876-17.592-17.592-17.592-7.702 0-14.244 4.952-16.626 11.845a7.99 7.99 0 0 0-9.506 4.197 12.8 12.8 0 0 0-2.836-.32c-7.06 0-12.784 5.724-12.784 12.784 0 7.041 5.692 12.75 12.725 12.782v.052h44.419c6.072 0 10.995-4.923 10.995-10.995.001-5.357-3.832-9.817-8.906-10.793z" opacity=".61" class="colorffbe55 svgShape"></path>
  <path fill="#ffbf66" d="M605.868 714.692h-36.325V610.339c0-5.812-4.755-10.567-10.567-10.567s-10.567 4.755-10.567 10.567v104.352h-36.325c-11.672 0-21.135 9.462-21.135 21.135h136.054c0-11.672-9.463-21.134-21.135-21.134z" class="colorffbe55 svgShape"></path>
  <path fill="#ffbf66" d="M360.034 663.638V444.191a7.464 7.464 0 0 1 7.464-7.464h382.956a7.463 7.463 0 0 1 7.463 7.463v219.447a7.464 7.464 0 0 1-7.464 7.464H367.497a7.463 7.463 0 0 1-7.463-7.463z" class="colorffbe55 svgShape"></path>
  <path fill="#ffffff" d="M748.464 445.996v213.175H369.486V445.996z" class="colorffffff svgShape"></path>
  <path fill="#ffbf66" fill-rule="evenodd" d="m546.997 522.524-13.948 10.33 5.124 2.251c-.776 1.934-1.02 3.974-1.051 6.09.105 2.689.466 5.413 1.347 8.05.842 2.457 2.317 4.961 3.901 6.964 1.711 2.164 3.776 3.9 6.064 5.272 2.45 1.308 4.981 2.351 7.532 2.744 2.639.543 5.394.598 8.052.09 5.142-.915 9.983-3.766 13.126-7.732 3.57-3.982 5.164-9.15 5.159-14.181-.035-2.513-.536-5.188-1.52-7.545-.722-2.31-2.164-4.414-3.779-6.416-3.254-3.755-7.904-6.285-12.768-7.011-2.455-.232-4.973-.225-7.361.343-2.359.332-4.618 1.461-6.664 2.667 2.046-1.205 4.339-1.935 6.848-2.356 2.334-.318 4.701-.236 6.982.099 4.653 1.051 8.883 3.61 11.749 7.392 1.408 1.705 2.461 3.836 3.238 5.895.747 2.295 1.056 4.647.901 6.836-.259 4.583-2.078 9.026-5.033 12.227-2.94 3.226-7.199 5.298-11.559 5.769-4.273.621-8.751-.534-12.236-2.911-1.811-1.248-3.298-2.688-4.61-4.231-1.101-1.868-2.208-3.749-2.747-5.748-.797-3.122-.787-6.701.133-9.76l5.266 2.15-2.146-17.278z" clip-rule="evenodd" class="colorffbe55 svgShape"></path>
  <path fill="#fadbaf" d="m363.823 723.643.029 7.896a17.236 17.236 0 0 1-.649 4.752l-.686 2.432c-.564 1.997.937 3.979 3.012 3.971 5.378-.019 14.57-.005 16.939-.001.388.001.768-.261.801-.647.2-2.305-6.459-3.849-11.474-5.791-3.82-1.479-3.617-8.345-3.146-12.355.178-1.515-1.086-2.804-2.606-2.678a2.42 2.42 0 0 0-2.22 2.421zM326.859 721.428l-2.721 9.033c-.12.399-.3.778-.533 1.124l-1.929 2.864a3.262 3.262 0 0 0 1.754 4.942s3.889 1.368 7.898 2.685c4.104 1.348 9.265.221 9.265-.861 0-2.406-2.243-.496-6.001-3.009-1.259-.842-2.559-1.723-3.717-2.632-3.234-2.539-.41-8.965 1.57-12.585.712-1.301-.044-2.917-1.495-3.226l-.937-.2a2.705 2.705 0 0 0-3.154 1.865z" class="colorfab9af svgShape"></path>
  <path fill="#2989a4" d="m354.65 615.769 29.806-2.502s3.001 21.693-4.532 60.963c-3.533 18.415-10.895 53.606-10.895 53.606-1.825.799-3.68.999-5.57.528 0 0-.559-15.523-.901-32.239-.328-16.032-.416-33.163-1.438-38.768-2.086-11.449-6.47-41.588-6.47-41.588z" class="color0b4870 svgShape"></path>
  <path fill="#2989a4" d="M360.802 616.147c3.077 16.515 9.952 41.211-3.29 64.411-13.242 23.2-27.15 47.32-27.15 47.32-1.792.073-3.417-.577-4.927-1.723 0 0 2.322-10.518 5.678-22.799 3.839-14.049 8.703-30.575 7.317-39.191-2.597-16.148-5.579-37.654-4.676-48.098.905-10.443 25.43-8.604 27.048.08zM383.18 557.715l23.489 12.913 23.588-37.12-28.53-9.911z" class="color0b4870 svgShape"></path>
  <path fill="#fff3e3" d="m384.666 556.597 21.967 12.073 22.059-34.711-26.68-9.269z" class="colore3f2ff svgShape"></path>
  <path fill="#fadbaf" d="M376.622 550.105s4.088-1.955 5.883-2.978c1.794-1.021 6.41-2.425 6.783-2.758.372-.334 13.683-1.155 14.491-1.85.807-.696 1.592 1.632-1.858 2.388s-8.25 2.604-8.513 3.952c-.262 1.349 3.543 1.668 3.929 2.778.386 1.11-.108.863-.653 1.099-.546.239-4.528-1.966-6.279-1.34-1.751.627-4.427-.241-5.769.219-1.342.459-7.867 2.655-7.867 2.655l-.147-4.165z" class="colorfab9af svgShape"></path>
  <path fill="#eadfcf" d="m384 552.992 2.106-.778s-2.626-6.164-3.772-6.014c-1.321.174-2.968.609-2.968.609l4.634 6.183z" class="coloread8cf svgShape"></path>
  <path fill="#ff8066" d="M384.481 554.058c-.27-.201-4.476-8.273-4.476-8.273l-8.989 1.219 4.858 9.561 8.607-2.507z" class="colorda9b5b svgShape"></path>
  <path fill="#fadbaf" d="M407.811 565.966s3.434-3.09 5.096-4.385c1.662-1.293 4.782-5.096 5.241-5.317.459-.223 6.416-12.448 7.388-12.936.97-.491-.919-2.138-2.975.82-2.055 2.958-5.665 6.761-7.039 6.485-1.373-.279-.192-3.99-1.088-4.784-.897-.798-.854-.237-1.291.185-.437.424.09 5.034-1.182 6.44-1.272 1.404-1.497 4.267-2.452 5.35-.955 1.085-5.565 6.382-5.565 6.382l3.867 1.76zM353.051 489.681s10.307-3.85 15.059 3.997c4.751 7.845 4.294 23.549-.902 25.482-5.194 1.931-12.999.921-15.658-3.988-2.659-4.909-5.061-12.004-4.945-16.748.115-4.744 3.739-7.374 6.446-8.743z" class="colorfab9af svgShape"></path>
  <path fill="#fadbaf" d="M366.09 519.519s-.832 7.397-.123 8.77c.709 1.369-12.866 0-12.866 0s-1.226-10.665-3.389-16.967c-2.164-6.297 16.378 8.197 16.378 8.197z" class="colorfab9af svgShape"></path>
  <path fill="#2989a4" d="M349.712 511.322s.499 7.94 4.461 7.318c3.961-.62 9.265-12.229 10.919-12.806 1.654-.58 1.67-1.551 1.67-1.551l1.035 1.513 1.757.112s-1.602-4.715.815-6.639c2.418-1.922-2.509-15.261-15.213-10.821 0 0-9.758 2.691-9.404 8.239.356 5.551 1.777 11.873 3.96 14.635z" class="color0b4870 svgShape"></path>
  <path fill="#e2d8ca" d="M367.577 529.94s-.045-2.617-1.232-2.871c-1.187-.25-13.104-1.395-14.561-.822v3.052c0-.001 2.808 1.726 15.793.641z" class="colore2d2ca svgShape"></path>
  <path fill="#eec286" d="M366.499 502.265c-.222-.932-2.589-3.591-3.495-.742-.906 2.847 1.37 6.679 2.639 6.349 1.27-.326 1.42-3.247.856-5.607z" class="coloreea886 svgShape"></path>
  <path fill="#ff6699" d="M333.945 615.007s4.377 14.174 15.101 15.786c21.969 3.302 36.889-10.857 37.058-12.13.171-1.275-12.076-27.99-11.736-30.366.339-2.376 3.379-35.714 3.379-35.714.134 2.321 6.741 27.669 9.594 32.834 1.03 1.866 4.488 7.715 6.155 6.384 8.068-6.44 20.561-30.714 21.354-30.919-.667-.29-5.921-2.708-6.659-2.954-.645-.216-6.466 5.945-9.993 9.766-1.573 1.703-2.688 2.94-2.688 2.94-1.019-2.292-4.728-16.726-5.881-21.722-2.6-11.266-2.2-11.734-2.2-11.734-7.885-2.385-19.853-7.241-19.853-7.241l-15.793-.642s-14.494 3.19-20.202 5.767c-.542.245-.544 12.932-2.03 16.257l4.733 9.985s9.815 19.522 10.382 28.319c.262 4.04-10.721 25.384-10.721 25.384z" class="color00aef0 svgShape"></path>
  <path fill="#ff6699" d="M328.896 567.794c.412 1.331 2.285 2.454 3.501 2.947a4.535 4.535 0 0 0 2.529.254l.619-.114v-.002l10.823-2.009s2.367-27.272-14.785-33.806c-.455.15-6.474 20.518-2.687 32.73z" class="color00aef0 svgShape"></path>
  <path fill="#3a4447" d="M350.116 490.606s-12.969 1.315-.231 21.004l.231-21.004z" class="color3a3f47 svgShape"></path>
  <path fill="#2989a4" d="m419.396 531.511 1.372-2.358-10.814-3.732-1.373 2.348z" class="color0b4870 svgShape"></path>
  <g fill="#ff6699" class="color00aef0 svgShape">
    <path d="M650.297 580.253H465.054a3.575 3.575 0 0 1-3.565-3.565 3.575 3.575 0 0 1 3.565-3.565h185.243a3.575 3.575 0 0 1 3.565 3.565 3.575 3.575 0 0 1-3.565 3.565z" opacity=".5" fill="#000000" class="color000000 svgShape"></path>
    <path d="M560.632 580.253h-95.578a3.575 3.575 0 0 1-3.565-3.565 3.575 3.575 0 0 1 3.565-3.565h95.578a3.575 3.575 0 0 1 3.565 3.565 3.576 3.576 0 0 1-3.565 3.565z" fill="#000000" class="color000000 svgShape"></path>
  </g>
  <path fill="#7ee0fc" d="M369.486 445.996h378.978v20.257H369.486z" class="color7edefc svgShape"></path>
  <path fill="#ffffff" d="M708.762 456.125a4.842 4.842 0 1 0-9.684 0 4.842 4.842 0 0 0 9.684 0zM723.777 456.125a4.842 4.842 0 1 0-9.684 0 4.842 4.842 0 0 0 9.684 0zM738.792 456.125a4.842 4.842 0 1 0-9.684 0 4.842 4.842 0 0 0 9.684 0z" class="colorffffff svgShape"></path>
  <path fill="#2989a4" d="M353.462 488.737s-14.707-.497-9.179 17.092 10.539 37.232 3.968 40.851c0 0 11.509-1.679 11.43-14.462-.079-12.783 5.123-20.609 5.123-20.609l4.75-5.702s-7.055-17.835-15.307-17.171" class="color0b4870 svgShape"></path>
</svg>
